<?xml version="1.0" encoding="utf-8"?><!-- Uploaded to: SVG Repo, www.svgrepo.com, Generator: SVG Repo Mixer Tools -->
<svg width="800px" height="800px" viewBox="0 -0.5 25 25" fill="none" xmlns="http://www.w3.org/2000/svg">
<path fill-rule="evenodd" clip-rule="evenodd" d="M9.808 4.00001H15.329C15.3863 4.00001 15.4433 4.00367 15.5 4.01101C17.7473 4.16817 19.4924 6.0332 19.5 8.28601V14.715C19.4917 17.0871 17.5641 19.0044 15.192 19H9.808C7.43551 19.0044 5.50772 17.0865 5.5 14.714V8.28601C5.50772 5.91353 7.43551 3.99558 9.808 4.00001Z" stroke="#000000" stroke-width="1.5" stroke-linecap="round" stroke-linejoin="round"/>
<path d="M19.5 9.03599C19.9142 9.03599 20.25 8.7002 20.25 8.28599C20.25 7.87177 19.9142 7.53599 19.5 7.53599V9.03599ZM15.5 8.28599H14.75C14.75 8.7002 15.0858 9.03599 15.5 9.03599V8.28599ZM16.25 4.01099C16.25 3.59677 15.9142 3.26099 15.5 3.26099C15.0858 3.26099 14.75 3.59677 14.75 4.01099H16.25ZM11.0303 9.46966C10.7374 9.17676 10.2626 9.17676 9.96967 9.46966C9.67678 9.76255 9.67678 10.2374 9.96967 10.5303L11.0303 9.46966ZM11.9697 12.5303C12.2626 12.8232 12.7374 12.8232 13.0303 12.5303C13.3232 12.2374 13.3232 11.7625 13.0303 11.4697L11.9697 12.5303ZM13.0303 11.4697C12.7374 11.1768 12.2626 11.1768 11.9697 11.4697C11.6768 11.7625 11.6768 12.2374 11.9697 12.5303L13.0303 11.4697ZM13.9697 14.5303C14.2626 14.8232 14.7374 14.8232 15.0303 14.5303C15.3232 14.2374 15.3232 13.7625 15.0303 13.4697L13.9697 14.5303ZM13.0303 12.5303C13.3232 12.2374 13.3232 11.7625 13.0303 11.4697C12.7374 11.1768 12.2626 11.1768 11.9697 11.4697L13.0303 12.5303ZM9.96967 13.4697C9.67678 13.7625 9.67678 14.2374 9.96967 14.5303C10.2626 14.8232 10.7374 14.8232 11.0303 14.5303L9.96967 13.4697ZM11.9697 11.4697C11.6768 11.7625 11.6768 12.2374 11.9697 12.5303C12.2626 12.8232 12.7374 12.8232 13.0303 12.5303L11.9697 11.4697ZM15.0303 10.5303C15.3232 10.2374 15.3232 9.76255 15.0303 9.46966C14.7374 9.17676 14.2626 9.17676 13.9697 9.46966L15.0303 10.5303ZM19.5 7.53599H15.5V9.03599H19.5V7.53599ZM16.25 8.28599V4.01099H14.75V8.28599H16.25ZM9.96967 10.5303L11.9697 12.5303L13.0303 11.4697L11.0303 9.46966L9.96967 10.5303ZM11.9697 12.5303L13.9697 14.5303L15.0303 13.4697L13.0303 11.4697L11.9697 12.5303ZM11.9697 11.4697L9.96967 13.4697L11.0303 14.5303L13.0303 12.5303L11.9697 11.4697ZM13.0303 12.5303L15.0303 10.5303L13.9697 9.46966L11.9697 11.4697L13.0303 12.5303Z" fill="#000000"/>
</svg>