<?xml version="1.0" encoding="iso-8859-1"?>
<!-- Uploaded to: SVG Repo, www.svgrepo.com, Generator: SVG Repo Mixer Tools -->
<svg height="800px" width="800px" version="1.1" id="Layer_1" xmlns="http://www.w3.org/2000/svg" xmlns:xlink="http://www.w3.org/1999/xlink" 
	 viewBox="0 0 512.001 512.001" xml:space="preserve">
<path style="fill:#4C213A;" d="M256,435.376c-58.9,0-115.11-21.726-167.067-64.576C47.202,336.387,19.02,296.88,5.934,276.393
	c-7.912-12.388-7.912-28.398,0-40.785c13.086-20.487,41.268-59.994,82.999-94.408C140.89,98.351,197.099,76.624,256,76.624
	s115.11,21.726,167.067,64.576c41.731,34.414,69.913,73.921,82.999,94.408c7.912,12.388,7.912,28.398,0,40.785
	c-13.086,20.487-41.268,59.994-82.999,94.408C371.111,413.65,314.901,435.376,256,435.376z M256,102.128
	c-124.844,0-206.514,112.675-228.572,147.207c-2.586,4.049-2.586,9.281,0,13.329C49.486,297.198,131.157,409.872,256,409.872
	s206.514-112.675,228.572-147.207c2.586-4.049,2.586-9.281,0-13.329C462.514,214.802,380.845,102.128,256,102.128z"/>
<circle style="fill:#E7B3A8;" cx="256.003" cy="256.003" r="153.02"/>
<g>
	<path style="fill:#4C213A;" d="M256,421.774c-91.409,0-165.774-74.366-165.774-165.774S164.593,90.226,256,90.226
		S421.774,164.593,421.774,256S347.409,421.774,256,421.774z M256,115.73c-77.345,0-140.271,62.926-140.271,140.271
		S178.655,396.271,256,396.271S396.271,333.347,396.271,256S333.347,115.73,256,115.73z"/>
	<path style="fill:#4C213A;" d="M260.173,348.096c-50.782,0-92.097-41.314-92.097-92.096s41.314-92.096,92.097-92.096
		c35.114,0,66.692,19.536,82.409,50.982c3.148,6.299,0.594,13.959-5.706,17.108c-6.299,3.15-13.959,0.595-17.108-5.705
		c-11.369-22.749-34.205-36.88-59.595-36.88c-36.72,0-66.594,29.873-66.594,66.593s29.875,66.593,66.594,66.593
		c23.398,0,45.359-12.529,57.317-32.698c3.59-6.057,11.415-8.055,17.471-4.466c6.058,3.592,8.056,11.414,4.466,17.472
		C322.899,330.78,292.531,348.096,260.173,348.096z"/>
</g>
</svg>