<svg xmlns="http://www.w3.org/2000/svg" viewBox="0 0 16 16" id="router"><path fill="#231f20" d="M4.252 1.473c-.71-.001-1.419.154-2.066.466l.216.452a4.274 4.274 0 0 1 3.696.002l.216-.45a4.735 4.735 0 0 0-2.062-.47Zm-.01 1.998c-.408 0-.817.092-1.19.271l.218.45a2.271 2.271 0 0 1 1.949-.003l.215-.45a2.752 2.752 0 0 0-1.192-.268Zm.008 2.045c-.689 0-1.25.56-1.25 1.25 0 .6.434 1.08 1 1.199V9.5H1.91a.911.911 0 0 0-.91.91v2.678c0 .5.408.912.91.912h11.68c.502 0 .91-.41.91-.912V10.41a.911.911 0 0 0-.91-.91H4.5V7.965c.566-.12 1-.6 1-1.2 0-.688-.561-1.25-1.25-1.25zm0 .5a.75.75 0 0 1 0 1.5.75.75 0 0 1 0-1.5zM1.91 10h11.68a.41.41 0 0 1 .41.41v2.678a.412.412 0 0 1-.41.412H1.91a.412.412 0 0 1-.41-.412V10.41a.41.41 0 0 1 .41-.41Zm8.578 1.46a.3.3 0 1 0 .299.3.3.3 0 0 0-.299-.3zm-7.738.04v.5h4v-.5h-4zm7.738.06a.2.2 0 1 1-.001.401.2.2 0 0 1 .001-.4z"></path></svg>